<?xml version="1.0" encoding="UTF-8"?>
<svg id="_레이어_2" data-name="레이어 2" xmlns="http://www.w3.org/2000/svg" viewBox="0 0 56.61 55.24">
  <defs>
    <style>
      .cls-1 {
        fill: #231815;
      }
    </style>
  </defs>
  <g id="_레이어_1-2" data-name="레이어 1">
    <path class="cls-1" d="M38.18,32.33c.73.73,1.1,1.5,1.14,3.09l-.08,7.64c0,2.03.69,3.29,1.83,4.43,2.15,2.15,5.65,2.23,7.84.04s2.15-5.57.04-7.76c-1.26-1.26-1.26-3.21,0-4.47s3.21-1.26,4.47,0c4.35,4.51,4.27,11.74-.37,16.38s-11.99,4.75-16.46.28c-2.44-2.44-3.37-5-3.29-8.57l.16-6.83-2.03-2.03c-1.26-1.26-1.26-3.21,0-4.47s3.21-1.26,4.43-.04l2.32,2.32Z"/>
    <path class="cls-1" d="M33.69,18.42c.73-.73,1.5-1.1,3.09-1.14l7.64.08c2.03,0,3.29-.69,4.43-1.83,2.15-2.15,2.23-5.65.04-7.84s-5.57-2.15-7.76-.04c-1.26,1.26-3.21,1.26-4.47,0s-1.26-3.21,0-4.47c4.51-4.35,11.74-4.27,16.38.37s4.75,11.99.28,16.46c-2.44,2.44-5,3.37-8.57,3.29l-6.83-.16-2.03,2.03c-1.26,1.26-3.21,1.26-4.47,0-1.26-1.26-1.26-3.21-.04-4.43l2.32-2.32Z"/>
    <path class="cls-1" d="M22.91,36.82c-.73.73-1.5,1.1-3.09,1.14l-7.64-.08c-2.03,0-3.29.69-4.43,1.83-2.15,2.15-2.23,5.65-.04,7.84s5.57,2.15,7.76.04c1.26-1.26,3.21-1.26,4.47,0s1.26,3.21,0,4.47c-4.51,4.35-11.74,4.27-16.38-.37s-4.75-11.99-.28-16.46c2.44-2.44,5-3.37,8.57-3.29l6.83.16,2.03-2.03c1.26-1.26,3.21-1.26,4.47,0s1.26,3.21.04,4.43l-2.32,2.32Z"/>
    <path class="cls-1" d="M18.42,22.91c-.73-.73-1.1-1.5-1.14-3.09l.08-7.64c0-2.03-.69-3.29-1.83-4.43-2.15-2.15-5.65-2.23-7.84-.04s-2.15,5.57-.04,7.76c1.26,1.26,1.26,3.21,0,4.47s-3.21,1.26-4.47,0C-1.16,15.44-1.08,8.2,3.55,3.57s11.99-4.75,16.46-.28c2.44,2.44,3.37,5,3.29,8.57l-.16,6.83,2.03,2.03c1.26,1.26,1.26,3.21,0,4.47s-3.21,1.26-4.43.04l-2.32-2.32Z"/>
    <circle class="cls-1" cx="28.18" cy="27.59" r="3.35"/>
  </g>
</svg>