<svg xmlns="http://www.w3.org/2000/svg" viewBox="0 0 64 64" fill="none">
  <rect width="64" height="64" fill="white"/>
  <path d="M32 8C18.745 8 8 18.745 8 32s10.745 24 24 24 24-10.745 24-24S45.255 8 32 8zm0 4c11.046 0 20 8.954 20 20s-8.954 20-20 20-20-8.954-20-20 8.954-20 20-20z" fill="black"/>
  <path d="M28 20c0-2.21-1.79-4-4-4s-4 1.79-4 4 1.79 4 4 4 4-1.79 4-4z" fill="black"/>
  <path d="M44 20c0-2.21-1.79-4-4-4s-4 1.79-4 4 1.79 4 4 4 4-1.79 4-4z" fill="black"/>
  <path d="M32 28c-6.627 0-12 5.373-12 12h4c0-4.418 3.582-8 8-8s8 3.582 8 8h4c0-6.627-5.373-12-12-12z" fill="black"/>
</svg>